<svg width="14" height="15" viewBox="0 0 14 15" fill="none" xmlns="http://www.w3.org/2000/svg">
<path d="M6.08329 12.2501C7.34057 12.2498 8.56161 11.8289 9.552 11.0544L12.6658 14.1682L13.6674 13.1667L10.5536 10.0528C11.3285 9.06234 11.7497 7.84102 11.75 6.58341C11.75 3.45896 9.20775 0.916748 6.08329 0.916748C2.95883 0.916748 0.416626 3.45896 0.416626 6.58341C0.416626 9.70787 2.95883 12.2501 6.08329 12.2501ZM6.08329 2.33341C8.42717 2.33341 10.3333 4.23954 10.3333 6.58341C10.3333 8.92729 8.42717 10.8334 6.08329 10.8334C3.73942 10.8334 1.83329 8.92729 1.83329 6.58341C1.83329 4.23954 3.73942 2.33341 6.08329 2.33341Z" fill="#2B2C34"/>
</svg>
